<svg viewBox="0 0 23 23" xmlns="http://www.w3.org/2000/svg">
<path d="M10.421811,0.552968 M12.578189,0.552968" fill="none" stroke="black" stroke-width="0.01"/>
<path d="M12.578189,0.552968 A11,11,0,0,1,14.693131,0.9736563 L14.402846,1.9305966" fill="none" stroke="black" stroke-width="0.01"/>
<path d="M14.693131,0.9736563 A11,11,0,0,1,16.685364,1.798866" fill="none" stroke="black" stroke-width="0.01"/>
<path d="M16.685364,1.798866 A11,11,0,0,1,18.478327,2.996885 L17.843933,3.7698956" fill="none" stroke="black" stroke-width="0.01"/>
<path d="M18.478327,2.996885 A11,11,0,0,1,20.003115,4.5216737" fill="none" stroke="black" stroke-width="0.01"/>
<path d="M20.003115,4.5216737 A11,11,0,0,1,21.201134,6.3146358" fill="none" stroke="black" stroke-width="0.01"/>
<path d="M21.201134,6.3146358 A11,11,0,0,1,22.026344,8.306869" fill="none" stroke="black" stroke-width="0.01"/>
<path d="M22.026344,8.306869 A11,11,0,0,1,22.447033,10.421811" fill="none" stroke="black" stroke-width="0.01"/>
<path d="M22.447033,10.421811 A11,11,0,0,1,22.447033,12.578189 L21.451847,12.480171" fill="none" stroke="black" stroke-width="0.01"/>
<path d="M22.447033,12.578189 A11,11,0,0,1,22.026344,14.693131" fill="none" stroke="black" stroke-width="0.01"/>
<path d="M22.026344,14.693131 A11,11,0,0,1,21.201134,16.685364" fill="none" stroke="black" stroke-width="0.01"/>
<path d="M21.201134,16.685364 A11,11,0,0,1,20.003115,18.478327" fill="none" stroke="black" stroke-width="0.01"/>
<path d="M20.003115,18.478327 A11,11,0,0,1,18.478327,20.003115" fill="none" stroke="black" stroke-width="0.01"/>
<path d="M18.478327,20.003115 A11,11,0,0,1,16.685364,21.201134" fill="none" stroke="black" stroke-width="0.01"/>
<path d="M16.685364,21.201134 A11,11,0,0,1,14.693131,22.026344" fill="none" stroke="black" stroke-width="0.01"/>
<path d="M14.693131,22.026344 A11,11,0,0,1,12.578189,22.447033" fill="none" stroke="black" stroke-width="0.01"/>
<path d="M12.578189,22.447033 A11,11,0,0,1,10.421811,22.447033" fill="none" stroke="black" stroke-width="0.01"/>
<path d="M10.421811,22.447033 A11,11,0,0,1,8.306869,22.026344 L8.597154,21.069403" fill="none" stroke="black" stroke-width="0.01"/>
<path d="M8.306869,22.026344 A11,11,0,0,1,6.3146358,21.201134" fill="none" stroke="black" stroke-width="0.01"/>
<path d="M6.3146358,21.201134 A11,11,0,0,1,4.5216737,20.003115" fill="none" stroke="black" stroke-width="0.01"/>
<path d="M4.5216737,20.003115 A11,11,0,0,1,2.996885,18.478327 L3.7698956,17.843933" fill="none" stroke="black" stroke-width="0.01"/>
<path d="M2.996885,18.478327 A11,11,0,0,1,1.798866,16.685364" fill="none" stroke="black" stroke-width="0.01"/>
<path d="M1.798866,16.685364 A11,11,0,0,1,0.9736563,14.693131" fill="none" stroke="black" stroke-width="0.01"/>
<path d="M0.9736563,14.693131 A11,11,0,0,1,0.552968,12.578189 L1.5481527,12.480171" fill="none" stroke="black" stroke-width="0.01"/>
<path d="M0.552968,12.578189 A11,11,0,0,1,0.552968,10.421811" fill="none" stroke="black" stroke-width="0.01"/>
<path d="M0.552968,10.421811 A11,11,0,0,1,0.9736563,8.306869" fill="none" stroke="black" stroke-width="0.01"/>
<path d="M0.9736563,8.306869 A11,11,0,0,1,1.798866,6.3146358 L2.6807873,6.7860327" fill="none" stroke="black" stroke-width="0.01"/>
<path d="M1.798866,6.3146358 A11,11,0,0,1,2.996885,4.5216737" fill="none" stroke="black" stroke-width="0.01"/>
<path d="M2.996885,4.5216737 A11,11,0,0,1,4.5216737,2.996885" fill="none" stroke="black" stroke-width="0.01"/>
<path d="M4.5216737,2.996885 A11,11,0,0,1,6.3146358,1.798866" fill="none" stroke="black" stroke-width="0.01"/>
<path d="M6.3146358,1.798866 A11,11,0,0,1,8.306869,0.9736563" fill="none" stroke="black" stroke-width="0.01"/>
<path d="M8.306869,0.9736563 A11,11,0,0,1,10.421811,0.552968 L10.519829,1.5481527" fill="none" stroke="black" stroke-width="0.01"/>
<path d="M10.519829,1.5481527 A10,10,0,0,1,12.480171,1.5481527 L12.382154,2.5433373" fill="none" stroke="black" stroke-width="0.01"/>
<path d="M12.480171,1.5481527 M14.402846,1.9305966" fill="none" stroke="black" stroke-width="0.01"/>
<path d="M14.402846,1.9305966 M16.213968,2.6807873 L15.742571,3.5627086" fill="none" stroke="black" stroke-width="0.01"/>
<path d="M16.213968,2.6807873 M17.843933,3.7698956" fill="none" stroke="black" stroke-width="0.01"/>
<path d="M17.843933,3.7698956 A10,10,0,0,1,19.230104,5.1560674" fill="none" stroke="black" stroke-width="0.01"/>
<path d="M19.230104,5.1560674 M20.319212,6.7860327 L19.437292,7.2574296" fill="none" stroke="black" stroke-width="0.01"/>
<path d="M20.319212,6.7860327 A10,10,0,0,1,21.069403,8.597154" fill="none" stroke="black" stroke-width="0.01"/>
<path d="M21.069403,8.597154 A10,10,0,0,1,21.451847,10.519829 L20.456663,10.617846" fill="none" stroke="black" stroke-width="0.01"/>
<path d="M21.451847,10.519829 M21.451847,12.480171 L20.456663,12.382154" fill="none" stroke="black" stroke-width="0.01"/>
<path d="M21.451847,12.480171 M21.069403,14.402846" fill="none" stroke="black" stroke-width="0.01"/>
<path d="M21.069403,14.402846 A10,10,0,0,1,20.319212,16.213968 L19.437292,15.742571" fill="none" stroke="black" stroke-width="0.01"/>
<path d="M20.319212,16.213968 A10,10,0,0,1,19.230104,17.843933" fill="none" stroke="black" stroke-width="0.01"/>
<path d="M19.230104,17.843933 A10,10,0,0,1,17.843933,19.230104" fill="none" stroke="black" stroke-width="0.01"/>
<path d="M17.843933,19.230104 A10,10,0,0,1,16.213968,20.319212" fill="none" stroke="black" stroke-width="0.01"/>
<path d="M16.213968,20.319212 A10,10,0,0,1,14.402846,21.069403 L14.112562,20.112463" fill="none" stroke="black" stroke-width="0.01"/>
<path d="M14.402846,21.069403 M12.480171,21.451847" fill="none" stroke="black" stroke-width="0.01"/>
<path d="M12.480171,21.451847 A10,10,0,0,1,10.519829,21.451847 L10.617846,20.456663" fill="none" stroke="black" stroke-width="0.01"/>
<path d="M10.519829,21.451847 M8.597154,21.069403 L8.887438,20.112463" fill="none" stroke="black" stroke-width="0.01"/>
<path d="M8.597154,21.069403 M6.7860327,20.319212 L7.2574296,19.437292" fill="none" stroke="black" stroke-width="0.01"/>
<path d="M6.7860327,20.319212 M5.1560674,19.230104 L5.7904606,18.457094" fill="none" stroke="black" stroke-width="0.01"/>
<path d="M5.1560674,19.230104 M3.7698956,17.843933 L4.542906,17.20954" fill="none" stroke="black" stroke-width="0.01"/>
<path d="M3.7698956,17.843933 M2.6807873,16.213968 L3.5627086,15.742571" fill="none" stroke="black" stroke-width="0.01"/>
<path d="M2.6807873,16.213968 A10,10,0,0,1,1.9305966,14.402846 L2.887537,14.112562" fill="none" stroke="black" stroke-width="0.01"/>
<path d="M1.9305966,14.402846 M1.5481527,12.480171" fill="none" stroke="black" stroke-width="0.01"/>
<path d="M1.5481527,12.480171 M1.5481527,10.519829 L2.5433373,10.617846" fill="none" stroke="black" stroke-width="0.01"/>
<path d="M1.5481527,10.519829 A10,10,0,0,1,1.9305966,8.597154 L2.887537,8.887438" fill="none" stroke="black" stroke-width="0.01"/>
<path d="M1.9305966,8.597154 M2.6807873,6.7860327" fill="none" stroke="black" stroke-width="0.01"/>
<path d="M2.6807873,6.7860327 M3.7698956,5.1560674 L4.542906,5.7904606" fill="none" stroke="black" stroke-width="0.01"/>
<path d="M3.7698956,5.1560674 A10,10,0,0,1,5.1560674,3.7698956 L5.7904606,4.542906" fill="none" stroke="black" stroke-width="0.01"/>
<path d="M5.1560674,3.7698956 M6.7860327,2.6807873" fill="none" stroke="black" stroke-width="0.01"/>
<path d="M6.7860327,2.6807873 A10,10,0,0,1,8.597154,1.9305966" fill="none" stroke="black" stroke-width="0.01"/>
<path d="M8.597154,1.9305966 A10,10,0,0,1,10.519829,1.5481527" fill="none" stroke="black" stroke-width="0.01"/>
<path d="M10.617846,2.5433373 M12.382154,2.5433373" fill="none" stroke="black" stroke-width="0.01"/>
<path d="M12.382154,2.5433373 A9,9,0,0,1,14.112562,2.887537" fill="none" stroke="black" stroke-width="0.01"/>
<path d="M14.112562,2.887537 A9,9,0,0,1,15.742571,3.5627086" fill="none" stroke="black" stroke-width="0.01"/>
<path d="M15.742571,3.5627086 A9,9,0,0,1,17.20954,4.542906 L16.575146,5.3159165" fill="none" stroke="black" stroke-width="0.01"/>
<path d="M17.20954,4.542906 A9,9,0,0,1,18.457094,5.7904606" fill="none" stroke="black" stroke-width="0.01"/>
<path d="M18.457094,5.7904606 A9,9,0,0,1,19.437292,7.2574296" fill="none" stroke="black" stroke-width="0.01"/>
<path d="M19.437292,7.2574296 A9,9,0,0,1,20.112463,8.887438" fill="none" stroke="black" stroke-width="0.01"/>
<path d="M20.112463,8.887438 M20.456663,10.617846 L19.461477,10.715863" fill="none" stroke="black" stroke-width="0.01"/>
<path d="M20.456663,10.617846 M20.456663,12.382154" fill="none" stroke="black" stroke-width="0.01"/>
<path d="M20.456663,12.382154 A9,9,0,0,1,20.112463,14.112562 L19.155523,13.822277" fill="none" stroke="black" stroke-width="0.01"/>
<path d="M20.112463,14.112562 M19.437292,15.742571 L18.55537,15.2711735" fill="none" stroke="black" stroke-width="0.01"/>
<path d="M19.437292,15.742571 A9,9,0,0,1,18.457094,17.20954" fill="none" stroke="black" stroke-width="0.01"/>
<path d="M18.457094,17.20954 A9,9,0,0,1,17.20954,18.457094 L16.575146,17.684084" fill="none" stroke="black" stroke-width="0.01"/>
<path d="M17.20954,18.457094 A9,9,0,0,1,15.742571,19.437292" fill="none" stroke="black" stroke-width="0.01"/>
<path d="M15.742571,19.437292 M14.112562,20.112463 L13.822277,19.155523" fill="none" stroke="black" stroke-width="0.01"/>
<path d="M14.112562,20.112463 A9,9,0,0,1,12.382154,20.456663" fill="none" stroke="black" stroke-width="0.01"/>
<path d="M12.382154,20.456663 M10.617846,20.456663 L10.715863,19.461477" fill="none" stroke="black" stroke-width="0.01"/>
<path d="M10.617846,20.456663 A9,9,0,0,1,8.887438,20.112463" fill="none" stroke="black" stroke-width="0.01"/>
<path d="M8.887438,20.112463 M7.2574296,19.437292 L7.728826,18.55537" fill="none" stroke="black" stroke-width="0.01"/>
<path d="M7.2574296,19.437292 M5.7904606,18.457094" fill="none" stroke="black" stroke-width="0.01"/>
<path d="M5.7904606,18.457094 A9,9,0,0,1,4.542906,17.20954" fill="none" stroke="black" stroke-width="0.01"/>
<path d="M4.542906,17.20954 M3.5627086,15.742571 L4.4446297,15.2711735" fill="none" stroke="black" stroke-width="0.01"/>
<path d="M3.5627086,15.742571 M2.887537,14.112562 L3.8444774,13.822277" fill="none" stroke="black" stroke-width="0.01"/>
<path d="M2.887537,14.112562 A9,9,0,0,1,2.5433373,12.382154" fill="none" stroke="black" stroke-width="0.01"/>
<path d="M2.5433373,12.382154 A9,9,0,0,1,2.5433373,10.617846" fill="none" stroke="black" stroke-width="0.01"/>
<path d="M2.5433373,10.617846 M2.887537,8.887438" fill="none" stroke="black" stroke-width="0.01"/>
<path d="M2.887537,8.887438 A9,9,0,0,1,3.5627086,7.2574296" fill="none" stroke="black" stroke-width="0.01"/>
<path d="M3.5627086,7.2574296 A9,9,0,0,1,4.542906,5.7904606" fill="none" stroke="black" stroke-width="0.01"/>
<path d="M4.542906,5.7904606 M5.7904606,4.542906 L6.424854,5.3159165" fill="none" stroke="black" stroke-width="0.01"/>
<path d="M5.7904606,4.542906 A9,9,0,0,1,7.2574296,3.5627086" fill="none" stroke="black" stroke-width="0.01"/>
<path d="M7.2574296,3.5627086 A9,9,0,0,1,8.887438,2.887537 L9.177723,3.8444774" fill="none" stroke="black" stroke-width="0.01"/>
<path d="M8.887438,2.887537 M10.617846,2.5433373 L10.715863,3.5385222" fill="none" stroke="black" stroke-width="0.01"/>
<path d="M10.715863,3.5385222 A8,8,0,0,1,12.284137,3.5385222" fill="none" stroke="black" stroke-width="0.01"/>
<path d="M12.284137,3.5385222 A8,8,0,0,1,13.822277,3.8444774 L13.531993,4.801418" fill="none" stroke="black" stroke-width="0.01"/>
<path d="M13.822277,3.8444774 A8,8,0,0,1,15.2711735,4.4446297 L14.799777,5.326551" fill="none" stroke="black" stroke-width="0.01"/>
<path d="M15.2711735,4.4446297 M16.575146,5.3159165" fill="none" stroke="black" stroke-width="0.01"/>
<path d="M16.575146,5.3159165 A8,8,0,0,1,17.684084,6.424854" fill="none" stroke="black" stroke-width="0.01"/>
<path d="M17.684084,6.424854 A8,8,0,0,1,18.55537,7.728826 L17.673449,8.200223" fill="none" stroke="black" stroke-width="0.01"/>
<path d="M18.55537,7.728826 M19.155523,9.177723 L18.198582,9.468007" fill="none" stroke="black" stroke-width="0.01"/>
<path d="M19.155523,9.177723 M19.461477,10.715863 L18.466293,10.81388" fill="none" stroke="black" stroke-width="0.01"/>
<path d="M19.461477,10.715863 A8,8,0,0,1,19.461477,12.284137" fill="none" stroke="black" stroke-width="0.01"/>
<path d="M19.461477,12.284137 M19.155523,13.822277 L18.198582,13.531993" fill="none" stroke="black" stroke-width="0.01"/>
<path d="M19.155523,13.822277 M18.55537,15.2711735" fill="none" stroke="black" stroke-width="0.01"/>
<path d="M18.55537,15.2711735 M17.684084,16.575146 L16.911074,15.940753" fill="none" stroke="black" stroke-width="0.01"/>
<path d="M17.684084,16.575146 M16.575146,17.684084" fill="none" stroke="black" stroke-width="0.01"/>
<path d="M16.575146,17.684084 M15.2711735,18.55537 L14.799777,17.673449" fill="none" stroke="black" stroke-width="0.01"/>
<path d="M15.2711735,18.55537 M13.822277,19.155523 L13.531993,18.198582" fill="none" stroke="black" stroke-width="0.01"/>
<path d="M13.822277,19.155523 M12.284137,19.461477" fill="none" stroke="black" stroke-width="0.01"/>
<path d="M12.284137,19.461477 A8,8,0,0,1,10.715863,19.461477" fill="none" stroke="black" stroke-width="0.01"/>
<path d="M10.715863,19.461477 M9.177723,19.155523 L9.468007,18.198582" fill="none" stroke="black" stroke-width="0.01"/>
<path d="M9.177723,19.155523 A8,8,0,0,1,7.728826,18.55537" fill="none" stroke="black" stroke-width="0.01"/>
<path d="M7.728826,18.55537 A8,8,0,0,1,6.424854,17.684084" fill="none" stroke="black" stroke-width="0.01"/>
<path d="M6.424854,17.684084 A8,8,0,0,1,5.3159165,16.575146 L6.088927,15.940753" fill="none" stroke="black" stroke-width="0.01"/>
<path d="M5.3159165,16.575146 A8,8,0,0,1,4.4446297,15.2711735" fill="none" stroke="black" stroke-width="0.01"/>
<path d="M4.4446297,15.2711735 M3.8444774,13.822277" fill="none" stroke="black" stroke-width="0.01"/>
<path d="M3.8444774,13.822277 M3.5385222,12.284137 L4.533707,12.18612" fill="none" stroke="black" stroke-width="0.01"/>
<path d="M3.5385222,12.284137 M3.5385222,10.715863 L4.533707,10.81388" fill="none" stroke="black" stroke-width="0.01"/>
<path d="M3.5385222,10.715863 A8,8,0,0,1,3.8444774,9.177723" fill="none" stroke="black" stroke-width="0.01"/>
<path d="M3.8444774,9.177723 A8,8,0,0,1,4.4446297,7.728826" fill="none" stroke="black" stroke-width="0.01"/>
<path d="M4.4446297,7.728826 A8,8,0,0,1,5.3159165,6.424854 L6.088927,7.059247" fill="none" stroke="black" stroke-width="0.01"/>
<path d="M5.3159165,6.424854 M6.424854,5.3159165" fill="none" stroke="black" stroke-width="0.01"/>
<path d="M6.424854,5.3159165 A8,8,0,0,1,7.728826,4.4446297" fill="none" stroke="black" stroke-width="0.01"/>
<path d="M7.728826,4.4446297 M9.177723,3.8444774 L9.468007,4.801418" fill="none" stroke="black" stroke-width="0.01"/>
<path d="M9.177723,3.8444774 M10.715863,3.5385222" fill="none" stroke="black" stroke-width="0.01"/>
<path d="M10.81388,4.533707 A7,7,0,0,1,12.18612,4.533707 L12.088103,5.5288916" fill="none" stroke="black" stroke-width="0.01"/>
<path d="M12.18612,4.533707 M13.531993,4.801418 L13.241708,5.758358" fill="none" stroke="black" stroke-width="0.01"/>
<path d="M13.531993,4.801418 M14.799777,5.326551" fill="none" stroke="black" stroke-width="0.01"/>
<path d="M14.799777,5.326551 A7,7,0,0,1,15.940753,6.088927" fill="none" stroke="black" stroke-width="0.01"/>
<path d="M15.940753,6.088927 A7,7,0,0,1,16.911074,7.059247" fill="none" stroke="black" stroke-width="0.01"/>
<path d="M16.911074,7.059247 M17.673449,8.200223 L16.791527,8.671619" fill="none" stroke="black" stroke-width="0.01"/>
<path d="M17.673449,8.200223 M18.198582,9.468007 L17.241642,9.758292" fill="none" stroke="black" stroke-width="0.01"/>
<path d="M18.198582,9.468007 M18.466293,10.81388 L17.471107,10.911897" fill="none" stroke="black" stroke-width="0.01"/>
<path d="M18.466293,10.81388 M18.466293,12.18612" fill="none" stroke="black" stroke-width="0.01"/>
<path d="M18.466293,12.18612 A7,7,0,0,1,18.198582,13.531993" fill="none" stroke="black" stroke-width="0.01"/>
<path d="M18.198582,13.531993 A7,7,0,0,1,17.673449,14.799777" fill="none" stroke="black" stroke-width="0.01"/>
<path d="M17.673449,14.799777 A7,7,0,0,1,16.911074,15.940753" fill="none" stroke="black" stroke-width="0.01"/>
<path d="M16.911074,15.940753 A7,7,0,0,1,15.940753,16.911074" fill="none" stroke="black" stroke-width="0.01"/>
<path d="M15.940753,16.911074 A7,7,0,0,1,14.799777,17.673449 L14.328381,16.791527" fill="none" stroke="black" stroke-width="0.01"/>
<path d="M14.799777,17.673449 M13.531993,18.198582" fill="none" stroke="black" stroke-width="0.01"/>
<path d="M13.531993,18.198582 A7,7,0,0,1,12.18612,18.466293" fill="none" stroke="black" stroke-width="0.01"/>
<path d="M12.18612,18.466293 A7,7,0,0,1,10.81388,18.466293" fill="none" stroke="black" stroke-width="0.01"/>
<path d="M10.81388,18.466293 A7,7,0,0,1,9.468007,18.198582 L9.758292,17.241642" fill="none" stroke="black" stroke-width="0.01"/>
<path d="M9.468007,18.198582 M8.200223,17.673449" fill="none" stroke="black" stroke-width="0.01"/>
<path d="M8.200223,17.673449 A7,7,0,0,1,7.059247,16.911074 L7.69364,16.138063" fill="none" stroke="black" stroke-width="0.01"/>
<path d="M7.059247,16.911074 M6.088927,15.940753" fill="none" stroke="black" stroke-width="0.01"/>
<path d="M6.088927,15.940753 A7,7,0,0,1,5.326551,14.799777 L6.2084723,14.328381" fill="none" stroke="black" stroke-width="0.01"/>
<path d="M5.326551,14.799777 A7,7,0,0,1,4.801418,13.531993" fill="none" stroke="black" stroke-width="0.01"/>
<path d="M4.801418,13.531993 A7,7,0,0,1,4.533707,12.18612" fill="none" stroke="black" stroke-width="0.01"/>
<path d="M4.533707,12.18612 M4.533707,10.81388 L5.5288916,10.911897" fill="none" stroke="black" stroke-width="0.01"/>
<path d="M4.533707,10.81388 M4.801418,9.468007" fill="none" stroke="black" stroke-width="0.01"/>
<path d="M4.801418,9.468007 A7,7,0,0,1,5.326551,8.200223" fill="none" stroke="black" stroke-width="0.01"/>
<path d="M5.326551,8.200223 A7,7,0,0,1,6.088927,7.059247" fill="none" stroke="black" stroke-width="0.01"/>
<path d="M6.088927,7.059247 A7,7,0,0,1,7.059247,6.088927" fill="none" stroke="black" stroke-width="0.01"/>
<path d="M7.059247,6.088927 A7,7,0,0,1,8.200223,5.326551" fill="none" stroke="black" stroke-width="0.01"/>
<path d="M8.200223,5.326551 M9.468007,4.801418 L9.758292,5.758358" fill="none" stroke="black" stroke-width="0.01"/>
<path d="M9.468007,4.801418 A7,7,0,0,1,10.81388,4.533707" fill="none" stroke="black" stroke-width="0.01"/>
<path d="M10.911897,5.5288916 M12.088103,5.5288916 L11.990086,6.5240765" fill="none" stroke="black" stroke-width="0.01"/>
<path d="M12.088103,5.5288916 M13.241708,5.758358 L12.951424,6.715298" fill="none" stroke="black" stroke-width="0.01"/>
<path d="M13.241708,5.758358 A6,6,0,0,1,14.328381,6.2084723" fill="none" stroke="black" stroke-width="0.01"/>
<path d="M14.328381,6.2084723 A6,6,0,0,1,15.306359,6.861937 L14.671967,7.634948" fill="none" stroke="black" stroke-width="0.01"/>
<path d="M15.306359,6.861937 M16.138063,7.69364" fill="none" stroke="black" stroke-width="0.01"/>
<path d="M16.138063,7.69364 A6,6,0,0,1,16.791527,8.671619" fill="none" stroke="black" stroke-width="0.01"/>
<path d="M16.791527,8.671619 M17.241642,9.758292 L16.284702,10.048576" fill="none" stroke="black" stroke-width="0.01"/>
<path d="M17.241642,9.758292 M17.471107,10.911897 L16.475924,11.009914" fill="none" stroke="black" stroke-width="0.01"/>
<path d="M17.471107,10.911897 A6,6,0,0,1,17.471107,12.088103" fill="none" stroke="black" stroke-width="0.01"/>
<path d="M17.471107,12.088103 A6,6,0,0,1,17.241642,13.241708" fill="none" stroke="black" stroke-width="0.01"/>
<path d="M17.241642,13.241708 A6,6,0,0,1,16.791527,14.328381 L15.909606,13.856984" fill="none" stroke="black" stroke-width="0.01"/>
<path d="M16.791527,14.328381 A6,6,0,0,1,16.138063,15.306359" fill="none" stroke="black" stroke-width="0.01"/>
<path d="M16.138063,15.306359 A6,6,0,0,1,15.306359,16.138063" fill="none" stroke="black" stroke-width="0.01"/>
<path d="M15.306359,16.138063 M14.328381,16.791527 L13.856984,15.909606" fill="none" stroke="black" stroke-width="0.01"/>
<path d="M14.328381,16.791527 A6,6,0,0,1,13.241708,17.241642 L12.951424,16.284702" fill="none" stroke="black" stroke-width="0.01"/>
<path d="M13.241708,17.241642 A6,6,0,0,1,12.088103,17.471107" fill="none" stroke="black" stroke-width="0.01"/>
<path d="M12.088103,17.471107 A6,6,0,0,1,10.911897,17.471107" fill="none" stroke="black" stroke-width="0.01"/>
<path d="M10.911897,17.471107 M9.758292,17.241642 L10.048576,16.284702" fill="none" stroke="black" stroke-width="0.01"/>
<path d="M9.758292,17.241642 M8.671619,16.791527 L9.143016,15.909606" fill="none" stroke="black" stroke-width="0.01"/>
<path d="M8.671619,16.791527 M7.69364,16.138063" fill="none" stroke="black" stroke-width="0.01"/>
<path d="M7.69364,16.138063 A6,6,0,0,1,6.861937,15.306359 L7.634948,14.671967" fill="none" stroke="black" stroke-width="0.01"/>
<path d="M6.861937,15.306359 M6.2084723,14.328381 L7.0903935,13.856984" fill="none" stroke="black" stroke-width="0.01"/>
<path d="M6.2084723,14.328381 M5.758358,13.241708" fill="none" stroke="black" stroke-width="0.01"/>
<path d="M5.758358,13.241708 A6,6,0,0,1,5.5288916,12.088103 L6.5240765,11.990086" fill="none" stroke="black" stroke-width="0.01"/>
<path d="M5.5288916,12.088103 A6,6,0,0,1,5.5288916,10.911897" fill="none" stroke="black" stroke-width="0.01"/>
<path d="M5.5288916,10.911897 M5.758358,9.758292 L6.715298,10.048576" fill="none" stroke="black" stroke-width="0.01"/>
<path d="M5.758358,9.758292 A6,6,0,0,1,6.2084723,8.671619" fill="none" stroke="black" stroke-width="0.01"/>
<path d="M6.2084723,8.671619 A6,6,0,0,1,6.861937,7.69364" fill="none" stroke="black" stroke-width="0.01"/>
<path d="M6.861937,7.69364 A6,6,0,0,1,7.69364,6.861937 L8.328033,7.634948" fill="none" stroke="black" stroke-width="0.01"/>
<path d="M7.69364,6.861937 A6,6,0,0,1,8.671619,6.2084723" fill="none" stroke="black" stroke-width="0.01"/>
<path d="M8.671619,6.2084723 A6,6,0,0,1,9.758292,5.758358" fill="none" stroke="black" stroke-width="0.01"/>
<path d="M9.758292,5.758358 M10.911897,5.5288916 L11.009914,6.5240765" fill="none" stroke="black" stroke-width="0.01"/>
<path d="M11.009914,6.5240765 M11.990086,6.5240765 L11.892069,7.519261" fill="none" stroke="black" stroke-width="0.01"/>
<path d="M11.990086,6.5240765 M12.951424,6.715298" fill="none" stroke="black" stroke-width="0.01"/>
<path d="M12.951424,6.715298 M13.856984,7.0903935 L13.385587,7.972315" fill="none" stroke="black" stroke-width="0.01"/>
<path d="M13.856984,7.0903935 M14.671967,7.634948" fill="none" stroke="black" stroke-width="0.01"/>
<path d="M14.671967,7.634948 A5,5,0,0,1,15.365052,8.328033" fill="none" stroke="black" stroke-width="0.01"/>
<path d="M15.365052,8.328033 A5,5,0,0,1,15.909606,9.143016 L15.027685,9.614413" fill="none" stroke="black" stroke-width="0.01"/>
<path d="M15.909606,9.143016 A5,5,0,0,1,16.284702,10.048576" fill="none" stroke="black" stroke-width="0.01"/>
<path d="M16.284702,10.048576 M16.475924,11.009914" fill="none" stroke="black" stroke-width="0.01"/>
<path d="M16.475924,11.009914 A5,5,0,0,1,16.475924,11.990086" fill="none" stroke="black" stroke-width="0.01"/>
<path d="M16.475924,11.990086 M16.284702,12.951424 L15.327762,12.661139" fill="none" stroke="black" stroke-width="0.01"/>
<path d="M16.284702,12.951424 A5,5,0,0,1,15.909606,13.856984" fill="none" stroke="black" stroke-width="0.01"/>
<path d="M15.909606,13.856984 M15.365052,14.671967 L14.592042,14.037573" fill="none" stroke="black" stroke-width="0.01"/>
<path d="M15.365052,14.671967 A5,5,0,0,1,14.671967,15.365052" fill="none" stroke="black" stroke-width="0.01"/>
<path d="M14.671967,15.365052 A5,5,0,0,1,13.856984,15.909606 L13.385587,15.027685" fill="none" stroke="black" stroke-width="0.01"/>
<path d="M13.856984,15.909606 M12.951424,16.284702" fill="none" stroke="black" stroke-width="0.01"/>
<path d="M12.951424,16.284702 M11.990086,16.475924 L11.892069,15.480739" fill="none" stroke="black" stroke-width="0.01"/>
<path d="M11.990086,16.475924 A5,5,0,0,1,11.009914,16.475924" fill="none" stroke="black" stroke-width="0.01"/>
<path d="M11.009914,16.475924 A5,5,0,0,1,10.048576,16.284702" fill="none" stroke="black" stroke-width="0.01"/>
<path d="M10.048576,16.284702 A5,5,0,0,1,9.143016,15.909606" fill="none" stroke="black" stroke-width="0.01"/>
<path d="M9.143016,15.909606 A5,5,0,0,1,8.328033,15.365052" fill="none" stroke="black" stroke-width="0.01"/>
<path d="M8.328033,15.365052 M7.634948,14.671967 L8.407958,14.037573" fill="none" stroke="black" stroke-width="0.01"/>
<path d="M7.634948,14.671967 M7.0903935,13.856984" fill="none" stroke="black" stroke-width="0.01"/>
<path d="M7.0903935,13.856984 A5,5,0,0,1,6.715298,12.951424 L7.672239,12.661139" fill="none" stroke="black" stroke-width="0.01"/>
<path d="M6.715298,12.951424 M6.5240765,11.990086 L7.519261,11.892069" fill="none" stroke="black" stroke-width="0.01"/>
<path d="M6.5240765,11.990086 M6.5240765,11.009914 L7.519261,11.107931" fill="none" stroke="black" stroke-width="0.01"/>
<path d="M6.5240765,11.009914 A5,5,0,0,1,6.715298,10.048576" fill="none" stroke="black" stroke-width="0.01"/>
<path d="M6.715298,10.048576 M7.0903935,9.143016 L7.972315,9.614413" fill="none" stroke="black" stroke-width="0.01"/>
<path d="M7.0903935,9.143016 M7.634948,8.328033 L8.407958,8.962427" fill="none" stroke="black" stroke-width="0.01"/>
<path d="M7.634948,8.328033 M8.328033,7.634948 L8.962427,8.407958" fill="none" stroke="black" stroke-width="0.01"/>
<path d="M8.328033,7.634948 M9.143016,7.0903935 L9.614413,7.972315" fill="none" stroke="black" stroke-width="0.01"/>
<path d="M9.143016,7.0903935 M10.048576,6.715298 L10.338861,7.672239" fill="none" stroke="black" stroke-width="0.01"/>
<path d="M10.048576,6.715298 A5,5,0,0,1,11.009914,6.5240765" fill="none" stroke="black" stroke-width="0.01"/>
<path d="M11.107931,7.519261 A4,4,0,0,1,11.892069,7.519261 M11.205949,8.514446 A3,3,0,0,1,11.794051,8.514446" fill="none" stroke="black" stroke-width="0.01"/>
<path d="M11.892069,7.519261 A4,4,0,0,1,12.661139,7.672239 M11.794051,8.514446 A3,3,0,0,1,12.370854,8.629179" fill="none" stroke="black" stroke-width="0.01"/>
<path d="M12.661139,7.672239 A4,4,0,0,1,13.385587,7.972315 M12.370854,8.629179 A3,3,0,0,1,12.91419,8.854237" fill="none" stroke="black" stroke-width="0.01"/>
<path d="M13.385587,7.972315 A4,4,0,0,1,14.037573,8.407958 M12.91419,8.854237 A3,3,0,0,1,13.40318,9.180968" fill="none" stroke="black" stroke-width="0.01"/>
<path d="M14.037573,8.407958 A4,4,0,0,1,14.592042,8.962427 L13.819032,9.59682 M13.40318,9.180968 A3,3,0,0,1,13.819032,9.59682" fill="none" stroke="black" stroke-width="0.01"/>
<path d="M14.592042,8.962427 M15.027685,9.614413 M13.819032,9.59682 A3,3,0,0,1,14.145763,10.08581" fill="none" stroke="black" stroke-width="0.01"/>
<path d="M15.027685,9.614413 A4,4,0,0,1,15.327762,10.338861 M14.145763,10.08581 A3,3,0,0,1,14.370821,10.629146" fill="none" stroke="black" stroke-width="0.01"/>
<path d="M15.327762,10.338861 A4,4,0,0,1,15.480739,11.107931 M14.370821,10.629146 A3,3,0,0,1,14.485554,11.205949" fill="none" stroke="black" stroke-width="0.01"/>
<path d="M15.480739,11.107931 A4,4,0,0,1,15.480739,11.892069 M14.485554,11.205949 A3,3,0,0,1,14.485554,11.794051" fill="none" stroke="black" stroke-width="0.01"/>
<path d="M15.480739,11.892069 A4,4,0,0,1,15.327762,12.661139 M14.485554,11.794051 A3,3,0,0,1,14.370821,12.370854" fill="none" stroke="black" stroke-width="0.01"/>
<path d="M15.327762,12.661139 M15.027685,13.385587 L14.145763,12.91419 M14.370821,12.370854 A3,3,0,0,1,14.145763,12.91419" fill="none" stroke="black" stroke-width="0.01"/>
<path d="M15.027685,13.385587 A4,4,0,0,1,14.592042,14.037573 M14.145763,12.91419 A3,3,0,0,1,13.819032,13.40318" fill="none" stroke="black" stroke-width="0.01"/>
<path d="M14.592042,14.037573 M14.037573,14.592042 M13.819032,13.40318 A3,3,0,0,1,13.40318,13.819032" fill="none" stroke="black" stroke-width="0.01"/>
<path d="M14.037573,14.592042 A4,4,0,0,1,13.385587,15.027685 M13.40318,13.819032 A3,3,0,0,1,12.91419,14.145763" fill="none" stroke="black" stroke-width="0.01"/>
<path d="M13.385587,15.027685 M12.661139,15.327762 M12.91419,14.145763 A3,3,0,0,1,12.370854,14.370821" fill="none" stroke="black" stroke-width="0.01"/>
<path d="M12.661139,15.327762 A4,4,0,0,1,11.892069,15.480739 M12.370854,14.370821 A3,3,0,0,1,11.794051,14.485554" fill="none" stroke="black" stroke-width="0.01"/>
<path d="M11.892069,15.480739 M11.107931,15.480739 L11.205949,14.485554" fill="none" stroke="black" stroke-width="0.01"/>
<path d="M11.107931,15.480739 A4,4,0,0,1,10.338861,15.327762 M11.205949,14.485554 A3,3,0,0,1,10.629146,14.370821" fill="none" stroke="black" stroke-width="0.01"/>
<path d="M10.338861,15.327762 A4,4,0,0,1,9.614413,15.027685 M10.629146,14.370821 A3,3,0,0,1,10.08581,14.145763" fill="none" stroke="black" stroke-width="0.01"/>
<path d="M9.614413,15.027685 A4,4,0,0,1,8.962427,14.592042 M10.08581,14.145763 A3,3,0,0,1,9.59682,13.819032" fill="none" stroke="black" stroke-width="0.01"/>
<path d="M8.962427,14.592042 A4,4,0,0,1,8.407958,14.037573 M9.59682,13.819032 A3,3,0,0,1,9.180968,13.40318" fill="none" stroke="black" stroke-width="0.01"/>
<path d="M8.407958,14.037573 A4,4,0,0,1,7.972315,13.385587 M9.180968,13.40318 A3,3,0,0,1,8.854237,12.91419" fill="none" stroke="black" stroke-width="0.01"/>
<path d="M7.972315,13.385587 M7.672239,12.661139 M8.854237,12.91419 A3,3,0,0,1,8.629179,12.370854" fill="none" stroke="black" stroke-width="0.01"/>
<path d="M7.672239,12.661139 M7.519261,11.892069 L8.514446,11.794051 M8.629179,12.370854 A3,3,0,0,1,8.514446,11.794051" fill="none" stroke="black" stroke-width="0.01"/>
<path d="M7.519261,11.892069 M7.519261,11.107931 M8.514446,11.794051 A3,3,0,0,1,8.514446,11.205949" fill="none" stroke="black" stroke-width="0.01"/>
<path d="M7.519261,11.107931 A4,4,0,0,1,7.672239,10.338861 M8.514446,11.205949 A3,3,0,0,1,8.629179,10.629146" fill="none" stroke="black" stroke-width="0.01"/>
<path d="M7.672239,10.338861 A4,4,0,0,1,7.972315,9.614413 M8.629179,10.629146 A3,3,0,0,1,8.854237,10.08581" fill="none" stroke="black" stroke-width="0.01"/>
<path d="M7.972315,9.614413 M8.407958,8.962427 L9.180968,9.59682 M8.854237,10.08581 A3,3,0,0,1,9.180968,9.59682" fill="none" stroke="black" stroke-width="0.01"/>
<path d="M8.407958,8.962427 M8.962427,8.407958 M9.180968,9.59682 A3,3,0,0,1,9.59682,9.180968" fill="none" stroke="black" stroke-width="0.01"/>
<path d="M8.962427,8.407958 A4,4,0,0,1,9.614413,7.972315 M9.59682,9.180968 A3,3,0,0,1,10.08581,8.854237" fill="none" stroke="black" stroke-width="0.01"/>
<path d="M9.614413,7.972315 M10.338861,7.672239 L10.629146,8.629179 M10.08581,8.854237 A3,3,0,0,1,10.629146,8.629179" fill="none" stroke="black" stroke-width="0.01"/>
<path d="M10.338861,7.672239 M11.107931,7.519261 M10.629146,8.629179 A3,3,0,0,1,11.205949,8.514446" fill="none" stroke="black" stroke-width="0.01"/>
<path d="M10.421811,0.552968 A11,11,0,0,1,12.578189,0.552968 L12.480171,1.5481527 A10,10,0,0,0,10.519829,1.5481527 z" fill="red" opacity="0.2" stroke="none"/>
<path d="M12.661139,15.327762 A4,4,0,0,1,11.892069,15.480739 L11.794051,14.485554 A3,3,0,0,0,12.370854,14.370821 z" fill="red" opacity="0.2" stroke="none"/>
</svg>