<svg viewBox="0 0 170 170" xmlns="http://www.w3.org/2000/svg">
<path d="M5,5 m10.05,0 m0,10.05 m-10.05,0 l0,-10.05" fill="none" stroke="black" stroke-width="0.1"/>
<path d="M5,15 l10.05,0 m0,10.05 m-10.05,0 l0,-10.05" fill="none" stroke="black" stroke-width="0.1"/>
<path d="M5,25 m10.05,0 l0,10.05 m-10.05,0 l0,-10.05" fill="none" stroke="black" stroke-width="0.1"/>
<path d="M5,35 m10.05,0 m0,10.05 m-10.05,0 l0,-10.05" fill="none" stroke="black" stroke-width="0.1"/>
<path d="M5,45 m10.05,0 m0,10.05 m-10.05,0 l0,-10.05" fill="none" stroke="black" stroke-width="0.1"/>
<path d="M5,55 l10.05,0 m0,10.05 m-10.05,0 l0,-10.05" fill="none" stroke="black" stroke-width="0.1"/>
<path d="M5,65 m10.05,0 l0,10.05 m-10.05,0 l0,-10.05" fill="none" stroke="black" stroke-width="0.1"/>
<path d="M5,75 m10.05,0 l0,10.05 m-10.05,0 l0,-10.05" fill="none" stroke="black" stroke-width="0.1"/>
<path d="M5,85 m10.05,0 m0,10.05 m-10.05,0 l0,-10.05" fill="none" stroke="black" stroke-width="0.1"/>
<path d="M5,95 m10.05,0 l0,10.05 m-10.05,0 l0,-10.05" fill="none" stroke="black" stroke-width="0.1"/>
<path d="M5,105 l10.05,0 m0,10.05 m-10.05,0 l0,-10.05" fill="none" stroke="black" stroke-width="0.1"/>
<path d="M5,115 m10.05,0 m0,10.05 m-10.05,0 l0,-10.05" fill="none" stroke="black" stroke-width="0.1"/>
<path d="M5,125 m10.05,0 m0,10.05 m-10.05,0 l0,-10.05" fill="none" stroke="black" stroke-width="0.1"/>
<path d="M5,135 l10.05,0 l0,10.05 m-10.05,0 l0,-10.05" fill="none" stroke="black" stroke-width="0.1"/>
<path d="M5,145 m10.05,0 m0,10.05 m-10.05,0 l0,-10.05" fill="none" stroke="black" stroke-width="0.1"/>
<path d="M5,155 m10.05,0 m0,10.05 l-10.05,0 l0,-10.05" fill="none" stroke="black" stroke-width="0.1"/>
<path d="M15,5 l10.05,0 m0,10.05 m-10.05,0" fill="none" stroke="black" stroke-width="0.1"/>
<path d="M15,15 l10.05,0 l0,10.05 m-10.05,0" fill="none" stroke="black" stroke-width="0.1"/>
<path d="M15,25 l10.05,0 m0,10.05 m-10.05,0" fill="none" stroke="black" stroke-width="0.1"/>
<path d="M15,35 m10.05,0 l0,10.05 m-10.05,0" fill="none" stroke="black" stroke-width="0.1"/>
<path d="M15,45 l10.05,0 m0,10.05 m-10.05,0" fill="none" stroke="black" stroke-width="0.1"/>
<path d="M15,55 l10.05,0 l0,10.05 m-10.05,0" fill="none" stroke="black" stroke-width="0.1"/>
<path d="M15,65 m10.05,0 m0,10.05 m-10.05,0" fill="none" stroke="black" stroke-width="0.1"/>
<path d="M15,75 l10.05,0 m0,10.05 m-10.05,0" fill="none" stroke="black" stroke-width="0.1"/>
<path d="M15,85 l10.05,0 l0,10.05 m-10.05,0" fill="none" stroke="black" stroke-width="0.1"/>
<path d="M15,95 m10.05,0 l0,10.05 m-10.05,0" fill="none" stroke="black" stroke-width="0.1"/>
<path d="M15,105 m10.05,0 l0,10.05 m-10.05,0" fill="none" stroke="black" stroke-width="0.1"/>
<path d="M15,115 l10.05,0 m0,10.05 m-10.05,0" fill="none" stroke="black" stroke-width="0.1"/>
<path d="M15,125 l10.05,0 m0,10.05 m-10.05,0" fill="none" stroke="black" stroke-width="0.1"/>
<path d="M15,135 m10.05,0 l0,10.05 m-10.05,0" fill="none" stroke="black" stroke-width="0.1"/>
<path d="M15,145 m10.05,0 l0,10.05 m-10.05,0" fill="none" stroke="black" stroke-width="0.1"/>
<path d="M15,155 l10.05,0 m0,10.05 l-10.05,0" fill="none" stroke="black" stroke-width="0.1"/>
<path d="M25,5 l10.05,0 l0,10.05 m-10.05,0" fill="none" stroke="black" stroke-width="0.1"/>
<path d="M25,15 m10.05,0 m0,10.05 m-10.05,0" fill="none" stroke="black" stroke-width="0.1"/>
<path d="M25,25 l10.05,0 l0,10.05 m-10.05,0" fill="none" stroke="black" stroke-width="0.1"/>
<path d="M25,35 m10.05,0 m0,10.05 m-10.05,0" fill="none" stroke="black" stroke-width="0.1"/>
<path d="M25,45 l10.05,0 l0,10.05 m-10.05,0" fill="none" stroke="black" stroke-width="0.1"/>
<path d="M25,55 m10.05,0 m0,10.05 m-10.05,0" fill="none" stroke="black" stroke-width="0.1"/>
<path d="M25,65 l10.05,0 l0,10.05 m-10.05,0" fill="none" stroke="black" stroke-width="0.1"/>
<path d="M25,75 m10.05,0 l0,10.05 m-10.05,0" fill="none" stroke="black" stroke-width="0.1"/>
<path d="M25,85 m10.05,0 m0,10.05 m-10.05,0" fill="none" stroke="black" stroke-width="0.1"/>
<path d="M25,95 l10.05,0 m0,10.05 m-10.05,0" fill="none" stroke="black" stroke-width="0.1"/>
<path d="M25,105 m10.05,0 m0,10.05 m-10.05,0" fill="none" stroke="black" stroke-width="0.1"/>
<path d="M25,115 l10.05,0 m0,10.05 m-10.05,0" fill="none" stroke="black" stroke-width="0.1"/>
<path d="M25,125 l10.05,0 m0,10.05 m-10.05,0" fill="none" stroke="black" stroke-width="0.1"/>
<path d="M25,135 l10.05,0 m0,10.05 m-10.05,0" fill="none" stroke="black" stroke-width="0.1"/>
<path d="M25,145 m10.05,0 m0,10.05 m-10.05,0" fill="none" stroke="black" stroke-width="0.1"/>
<path d="M25,155 l10.05,0 m0,10.05 l-10.05,0" fill="none" stroke="black" stroke-width="0.1"/>
<path d="M35,5 l10.05,0 m0,10.05 m-10.05,0" fill="none" stroke="black" stroke-width="0.1"/>
<path d="M35,15 l10.05,0 l0,10.05 m-10.05,0" fill="none" stroke="black" stroke-width="0.1"/>
<path d="M35,25 m10.05,0 m0,10.05 m-10.05,0" fill="none" stroke="black" stroke-width="0.1"/>
<path d="M35,35 l10.05,0 m0,10.05 m-10.05,0" fill="none" stroke="black" stroke-width="0.1"/>
<path d="M35,45 l10.05,0 m0,10.05 m-10.05,0" fill="none" stroke="black" stroke-width="0.1"/>
<path d="M35,55 l10.05,0 l0,10.05 m-10.05,0" fill="none" stroke="black" stroke-width="0.1"/>
<path d="M35,65 m10.05,0 l0,10.05 m-10.05,0" fill="none" stroke="black" stroke-width="0.1"/>
<path d="M35,75 m10.05,0 m0,10.05 m-10.05,0" fill="none" stroke="black" stroke-width="0.1"/>
<path d="M35,85 l10.05,0 l0,10.05 m-10.05,0" fill="none" stroke="black" stroke-width="0.1"/>
<path d="M35,95 l10.05,0 m0,10.05 m-10.05,0" fill="none" stroke="black" stroke-width="0.1"/>
<path d="M35,105 l10.05,0 l0,10.05 m-10.05,0" fill="none" stroke="black" stroke-width="0.1"/>
<path d="M35,115 m10.05,0 l0,10.05 m-10.05,0" fill="none" stroke="black" stroke-width="0.1"/>
<path d="M35,125 l10.05,0 l0,10.05 m-10.05,0" fill="none" stroke="black" stroke-width="0.1"/>
<path d="M35,135 l10.05,0 m0,10.05 m-10.05,0" fill="none" stroke="black" stroke-width="0.1"/>
<path d="M35,145 l10.05,0 m0,10.05 m-10.05,0" fill="none" stroke="black" stroke-width="0.1"/>
<path d="M35,155 l10.05,0 m0,10.05 l-10.05,0" fill="none" stroke="black" stroke-width="0.1"/>
<path d="M45,5 l10.05,0 m0,10.05 m-10.05,0" fill="none" stroke="black" stroke-width="0.1"/>
<path d="M45,15 m10.05,0 l0,10.05 m-10.05,0" fill="none" stroke="black" stroke-width="0.1"/>
<path d="M45,25 m10.05,0 l0,10.05 m-10.05,0" fill="none" stroke="black" stroke-width="0.1"/>
<path d="M45,35 l10.05,0 m0,10.05 m-10.05,0" fill="none" stroke="black" stroke-width="0.1"/>
<path d="M45,45 l10.05,0 m0,10.05 m-10.05,0" fill="none" stroke="black" stroke-width="0.1"/>
<path d="M45,55 m10.05,0 m0,10.05 m-10.05,0" fill="none" stroke="black" stroke-width="0.1"/>
<path d="M45,65 m10.05,0 l0,10.05 m-10.05,0" fill="none" stroke="black" stroke-width="0.1"/>
<path d="M45,75 l10.05,0 l0,10.05 m-10.05,0" fill="none" stroke="black" stroke-width="0.1"/>
<path d="M45,85 m10.05,0 m0,10.05 m-10.05,0" fill="none" stroke="black" stroke-width="0.1"/>
<path d="M45,95 l10.05,0 m0,10.05 m-10.05,0" fill="none" stroke="black" stroke-width="0.1"/>
<path d="M45,105 m10.05,0 l0,10.05 m-10.05,0" fill="none" stroke="black" stroke-width="0.1"/>
<path d="M45,115 m10.05,0 l0,10.05 m-10.05,0" fill="none" stroke="black" stroke-width="0.1"/>
<path d="M45,125 m10.05,0 l0,10.05 m-10.05,0" fill="none" stroke="black" stroke-width="0.1"/>
<path d="M45,135 m10.05,0 l0,10.05 m-10.05,0" fill="none" stroke="black" stroke-width="0.1"/>
<path d="M45,145 l10.05,0 m0,10.05 m-10.05,0" fill="none" stroke="black" stroke-width="0.1"/>
<path d="M45,155 l10.05,0 l0,10.05 l-10.05,0" fill="none" stroke="black" stroke-width="0.1"/>
<path d="M55,5 l10.05,0 l0,10.05 m-10.05,0" fill="none" stroke="black" stroke-width="0.1"/>
<path d="M55,15 m10.05,0 m0,10.05 m-10.05,0" fill="none" stroke="black" stroke-width="0.1"/>
<path d="M55,25 l10.05,0 m0,10.05 m-10.05,0" fill="none" stroke="black" stroke-width="0.1"/>
<path d="M55,35 m10.05,0 l0,10.05 m-10.05,0" fill="none" stroke="black" stroke-width="0.1"/>
<path d="M55,45 l10.05,0 m0,10.05 m-10.05,0" fill="none" stroke="black" stroke-width="0.1"/>
<path d="M55,55 l10.05,0 l0,10.05 m-10.05,0" fill="none" stroke="black" stroke-width="0.1"/>
<path d="M55,65 m10.05,0 l0,10.05 m-10.05,0" fill="none" stroke="black" stroke-width="0.1"/>
<path d="M55,75 m10.05,0 l0,10.05 m-10.05,0" fill="none" stroke="black" stroke-width="0.1"/>
<path d="M55,85 m10.05,0 l0,10.05 m-10.05,0" fill="none" stroke="black" stroke-width="0.1"/>
<path d="M55,95 l10.05,0 l0,10.05 m-10.05,0" fill="none" stroke="black" stroke-width="0.1"/>
<path d="M55,105 m10.05,0 m0,10.05 m-10.05,0" fill="none" stroke="black" stroke-width="0.1"/>
<path d="M55,115 l10.05,0 l0,10.05 m-10.05,0" fill="none" stroke="black" stroke-width="0.1"/>
<path d="M55,125 m10.05,0 l0,10.05 m-10.05,0" fill="none" stroke="black" stroke-width="0.1"/>
<path d="M55,135 m10.05,0 m0,10.05 m-10.05,0" fill="none" stroke="black" stroke-width="0.1"/>
<path d="M55,145 l10.05,0 l0,10.05 m-10.05,0" fill="none" stroke="black" stroke-width="0.1"/>
<path d="M55,155 m10.05,0 m0,10.05 l-10.05,0" fill="none" stroke="black" stroke-width="0.1"/>
<path d="M65,5 l10.05,0 m0,10.05 m-10.05,0" fill="none" stroke="black" stroke-width="0.1"/>
<path d="M65,15 m10.05,0 l0,10.05 m-10.05,0" fill="none" stroke="black" stroke-width="0.1"/>
<path d="M65,25 l10.05,0 m0,10.05 m-10.05,0" fill="none" stroke="black" stroke-width="0.1"/>
<path d="M65,35 l10.05,0 m0,10.05 m-10.05,0" fill="none" stroke="black" stroke-width="0.1"/>
<path d="M65,45 m10.05,0 l0,10.05 m-10.05,0" fill="none" stroke="black" stroke-width="0.1"/>
<path d="M65,55 m10.05,0 l0,10.05 m-10.05,0" fill="none" stroke="black" stroke-width="0.1"/>
<path d="M65,65 m10.05,0 l0,10.05 m-10.05,0" fill="none" stroke="black" stroke-width="0.1"/>
<path d="M65,75 m10.05,0 l0,10.05 m-10.05,0" fill="none" stroke="black" stroke-width="0.1"/>
<path d="M65,85 m10.05,0 l0,10.05 m-10.05,0" fill="none" stroke="black" stroke-width="0.1"/>
<path d="M65,95 m10.05,0 m0,10.05 m-10.05,0" fill="none" stroke="black" stroke-width="0.1"/>
<path d="M65,105 l10.05,0 l0,10.05 m-10.05,0" fill="none" stroke="black" stroke-width="0.1"/>
<path d="M65,115 m10.05,0 l0,10.05 m-10.05,0" fill="none" stroke="black" stroke-width="0.1"/>
<path d="M65,125 m10.05,0 l0,10.05 m-10.05,0" fill="none" stroke="black" stroke-width="0.1"/>
<path d="M65,135 m10.05,0 l0,10.05 m-10.05,0" fill="none" stroke="black" stroke-width="0.1"/>
<path d="M65,145 l10.05,0 m0,10.05 m-10.05,0" fill="none" stroke="black" stroke-width="0.1"/>
<path d="M65,155 m10.05,0 l0,10.05 l-10.05,0" fill="none" stroke="black" stroke-width="0.1"/>
<path d="M75,5 l10.05,0 m0,10.05 m-10.05,0" fill="none" stroke="black" stroke-width="0.1"/>
<path d="M75,15 l10.05,0 m0,10.05 m-10.05,0" fill="none" stroke="black" stroke-width="0.1"/>
<path d="M75,25 m10.05,0 m0,10.05 m-10.05,0" fill="none" stroke="black" stroke-width="0.1"/>
<path d="M75,35 l10.05,0 l0,10.05 m-10.05,0" fill="none" stroke="black" stroke-width="0.1"/>
<path d="M75,45 l10.05,0 m0,10.05 m-10.05,0" fill="none" stroke="black" stroke-width="0.1"/>
<path d="M75,55 m10.05,0 l0,10.05 m-10.05,0" fill="none" stroke="black" stroke-width="0.1"/>
<path d="M75,65 m10.05,0 m0,10.05 m-10.05,0" fill="none" stroke="black" stroke-width="0.1"/>
<path d="M75,75 l10.05,0 l0,10.05 m-10.05,0" fill="none" stroke="black" stroke-width="0.1"/>
<path d="M75,85 m10.05,0 l0,10.05 m-10.05,0" fill="none" stroke="black" stroke-width="0.1"/>
<path d="M75,95 m10.05,0 l0,10.05 m-10.05,0" fill="none" stroke="black" stroke-width="0.1"/>
<path d="M75,105 m10.05,0 l0,10.05 m-10.05,0" fill="none" stroke="black" stroke-width="0.1"/>
<path d="M75,115 m10.05,0 m0,10.05 m-10.05,0" fill="none" stroke="black" stroke-width="0.1"/>
<path d="M75,125 l10.05,0 m0,10.05 m-10.05,0" fill="none" stroke="black" stroke-width="0.1"/>
<path d="M75,135 m10.05,0 m0,10.05 m-10.05,0" fill="none" stroke="black" stroke-width="0.1"/>
<path d="M75,145 l10.05,0 l0,10.05 m-10.05,0" fill="none" stroke="black" stroke-width="0.1"/>
<path d="M75,155 m10.05,0 m0,10.05 l-10.05,0" fill="none" stroke="black" stroke-width="0.1"/>
<path d="M85,5 l10.05,0 m0,10.05 m-10.05,0" fill="none" stroke="black" stroke-width="0.1"/>
<path d="M85,15 l10.05,0 m0,10.05 m-10.05,0" fill="none" stroke="black" stroke-width="0.1"/>
<path d="M85,25 l10.05,0 l0,10.05 m-10.05,0" fill="none" stroke="black" stroke-width="0.1"/>
<path d="M85,35 m10.05,0 l0,10.05 m-10.05,0" fill="none" stroke="black" stroke-width="0.1"/>
<path d="M85,45 m10.05,0 l0,10.05 m-10.05,0" fill="none" stroke="black" stroke-width="0.1"/>
<path d="M85,55 l10.05,0 m0,10.05 m-10.05,0" fill="none" stroke="black" stroke-width="0.1"/>
<path d="M85,65 l10.05,0 l0,10.05 m-10.05,0" fill="none" stroke="black" stroke-width="0.1"/>
<path d="M85,75 m10.05,0 l0,10.05 m-10.05,0" fill="none" stroke="black" stroke-width="0.1"/>
<path d="M85,85 m10.05,0 m0,10.05 m-10.05,0" fill="none" stroke="black" stroke-width="0.1"/>
<path d="M85,95 l10.05,0 m0,10.05 m-10.05,0" fill="none" stroke="black" stroke-width="0.1"/>
<path d="M85,105 m10.05,0 m0,10.05 m-10.05,0" fill="none" stroke="black" stroke-width="0.1"/>
<path d="M85,115 l10.05,0 l0,10.05 m-10.05,0" fill="none" stroke="black" stroke-width="0.1"/>
<path d="M85,125 m10.05,0 l0,10.05 m-10.05,0" fill="none" stroke="black" stroke-width="0.1"/>
<path d="M85,135 l10.05,0 l0,10.05 m-10.05,0" fill="none" stroke="black" stroke-width="0.1"/>
<path d="M85,145 m10.05,0 l0,10.05 m-10.05,0" fill="none" stroke="black" stroke-width="0.1"/>
<path d="M85,155 m10.05,0 m0,10.05 l-10.05,0" fill="none" stroke="black" stroke-width="0.1"/>
<path d="M95,5 l10.05,0 m0,10.05 m-10.05,0" fill="none" stroke="black" stroke-width="0.1"/>
<path d="M95,15 l10.05,0 l0,10.05 m-10.05,0" fill="none" stroke="black" stroke-width="0.1"/>
<path d="M95,25 m10.05,0 m0,10.05 m-10.05,0" fill="none" stroke="black" stroke-width="0.1"/>
<path d="M95,35 l10.05,0 l0,10.05 m-10.05,0" fill="none" stroke="black" stroke-width="0.1"/>
<path d="M95,45 m10.05,0 m0,10.05 m-10.05,0" fill="none" stroke="black" stroke-width="0.1"/>
<path d="M95,55 l10.05,0 m0,10.05 m-10.05,0" fill="none" stroke="black" stroke-width="0.1"/>
<path d="M95,65 m10.05,0 m0,10.05 m-10.05,0" fill="none" stroke="black" stroke-width="0.1"/>
<path d="M95,75 m10.05,0 m0,10.05 m-10.05,0" fill="none" stroke="black" stroke-width="0.1"/>
<path d="M95,85 l10.05,0 m0,10.05 m-10.05,0" fill="none" stroke="black" stroke-width="0.1"/>
<path d="M95,95 l10.05,0 l0,10.05 m-10.05,0" fill="none" stroke="black" stroke-width="0.1"/>
<path d="M95,105 l10.05,0 m0,10.05 m-10.05,0" fill="none" stroke="black" stroke-width="0.1"/>
<path d="M95,115 m10.05,0 m0,10.05 m-10.05,0" fill="none" stroke="black" stroke-width="0.1"/>
<path d="M95,125 l10.05,0 m0,10.05 m-10.05,0" fill="none" stroke="black" stroke-width="0.1"/>
<path d="M95,135 m10.05,0 l0,10.05 m-10.05,0" fill="none" stroke="black" stroke-width="0.1"/>
<path d="M95,145 m10.05,0 m0,10.05 m-10.05,0" fill="none" stroke="black" stroke-width="0.1"/>
<path d="M95,155 l10.05,0 m0,10.05 l-10.05,0" fill="none" stroke="black" stroke-width="0.1"/>
<path d="M105,5 l10.05,0 l0,10.05 m-10.05,0" fill="none" stroke="black" stroke-width="0.1"/>
<path d="M105,15 m10.05,0 m0,10.05 m-10.05,0" fill="none" stroke="black" stroke-width="0.1"/>
<path d="M105,25 l10.05,0 l0,10.05 m-10.05,0" fill="none" stroke="black" stroke-width="0.1"/>
<path d="M105,35 m10.05,0 m0,10.05 m-10.05,0" fill="none" stroke="black" stroke-width="0.1"/>
<path d="M105,45 l10.05,0 l0,10.05 m-10.05,0" fill="none" stroke="black" stroke-width="0.1"/>
<path d="M105,55 m10.05,0 l0,10.05 m-10.05,0" fill="none" stroke="black" stroke-width="0.1"/>
<path d="M105,65 l10.05,0 m0,10.05 m-10.05,0" fill="none" stroke="black" stroke-width="0.1"/>
<path d="M105,75 l10.05,0 m0,10.05 m-10.05,0" fill="none" stroke="black" stroke-width="0.1"/>
<path d="M105,85 l10.05,0 l0,10.05 m-10.05,0" fill="none" stroke="black" stroke-width="0.1"/>
<path d="M105,95 m10.05,0 m0,10.05 m-10.05,0" fill="none" stroke="black" stroke-width="0.1"/>
<path d="M105,105 l10.05,0 m0,10.05 m-10.05,0" fill="none" stroke="black" stroke-width="0.1"/>
<path d="M105,115 l10.05,0 l0,10.05 m-10.05,0" fill="none" stroke="black" stroke-width="0.1"/>
<path d="M105,125 l10.05,0 l0,10.05 m-10.05,0" fill="none" stroke="black" stroke-width="0.1"/>
<path d="M105,135 m10.05,0 m0,10.05 m-10.05,0" fill="none" stroke="black" stroke-width="0.1"/>
<path d="M105,145 l10.05,0 l0,10.05 m-10.05,0" fill="none" stroke="black" stroke-width="0.1"/>
<path d="M105,155 m10.05,0 l0,10.05 l-10.05,0" fill="none" stroke="black" stroke-width="0.1"/>
<path d="M115,5 l10.05,0 m0,10.05 m-10.05,0" fill="none" stroke="black" stroke-width="0.1"/>
<path d="M115,15 m10.05,0 l0,10.05 m-10.05,0" fill="none" stroke="black" stroke-width="0.1"/>
<path d="M115,25 l10.05,0 l0,10.05 m-10.05,0" fill="none" stroke="black" stroke-width="0.1"/>
<path d="M115,35 m10.05,0 l0,10.05 m-10.05,0" fill="none" stroke="black" stroke-width="0.1"/>
<path d="M115,45 m10.05,0 l0,10.05 m-10.05,0" fill="none" stroke="black" stroke-width="0.1"/>
<path d="M115,55 m10.05,0 l0,10.05 m-10.05,0" fill="none" stroke="black" stroke-width="0.1"/>
<path d="M115,65 m10.05,0 m0,10.05 m-10.05,0" fill="none" stroke="black" stroke-width="0.1"/>
<path d="M115,75 l10.05,0 l0,10.05 m-10.05,0" fill="none" stroke="black" stroke-width="0.1"/>
<path d="M115,85 m10.05,0 l0,10.05 m-10.05,0" fill="none" stroke="black" stroke-width="0.1"/>
<path d="M115,95 l10.05,0 m0,10.05 m-10.05,0" fill="none" stroke="black" stroke-width="0.1"/>
<path d="M115,105 l10.05,0 m0,10.05 m-10.05,0" fill="none" stroke="black" stroke-width="0.1"/>
<path d="M115,115 m10.05,0 m0,10.05 m-10.05,0" fill="none" stroke="black" stroke-width="0.1"/>
<path d="M115,125 m10.05,0 l0,10.05 m-10.05,0" fill="none" stroke="black" stroke-width="0.1"/>
<path d="M115,135 l10.05,0 m0,10.05 m-10.05,0" fill="none" stroke="black" stroke-width="0.1"/>
<path d="M115,145 l10.05,0 l0,10.05 m-10.05,0" fill="none" stroke="black" stroke-width="0.1"/>
<path d="M115,155 m10.05,0 m0,10.05 l-10.05,0" fill="none" stroke="black" stroke-width="0.1"/>
<path d="M125,5 l10.05,0 m0,10.05 m-10.05,0" fill="none" stroke="black" stroke-width="0.1"/>
<path d="M125,15 l10.05,0 m0,10.05 m-10.05,0" fill="none" stroke="black" stroke-width="0.1"/>
<path d="M125,25 m10.05,0 l0,10.05 m-10.05,0" fill="none" stroke="black" stroke-width="0.1"/>
<path d="M125,35 m10.05,0 l0,10.05 m-10.05,0" fill="none" stroke="black" stroke-width="0.1"/>
<path d="M125,45 m10.05,0 m0,10.05 m-10.05,0" fill="none" stroke="black" stroke-width="0.1"/>
<path d="M125,55 l10.05,0 l0,10.05 m-10.05,0" fill="none" stroke="black" stroke-width="0.1"/>
<path d="M125,65 m10.05,0 l0,10.05 m-10.05,0" fill="none" stroke="black" stroke-width="0.1"/>
<path d="M125,75 l10.05,0 m0,10.05 m-10.05,0" fill="none" stroke="black" stroke-width="0.1"/>
<path d="M125,85 m10.05,0 l0,10.05 m-10.05,0" fill="none" stroke="black" stroke-width="0.1"/>
<path d="M125,95 m10.05,0 l0,10.05 m-10.05,0" fill="none" stroke="black" stroke-width="0.1"/>
<path d="M125,105 l10.05,0 l0,10.05 m-10.05,0" fill="none" stroke="black" stroke-width="0.1"/>
<path d="M125,115 l10.05,0 m0,10.05 m-10.05,0" fill="none" stroke="black" stroke-width="0.1"/>
<path d="M125,125 l10.05,0 m0,10.05 m-10.05,0" fill="none" stroke="black" stroke-width="0.1"/>
<path d="M125,135 m10.05,0 l0,10.05 m-10.05,0" fill="none" stroke="black" stroke-width="0.1"/>
<path d="M125,145 l10.05,0 m0,10.05 m-10.05,0" fill="none" stroke="black" stroke-width="0.1"/>
<path d="M125,155 m10.05,0 l0,10.05 l-10.05,0" fill="none" stroke="black" stroke-width="0.1"/>
<path d="M135,5 l10.05,0 m0,10.05 m-10.05,0" fill="none" stroke="black" stroke-width="0.1"/>
<path d="M135,15 l10.05,0 m0,10.05 m-10.05,0" fill="none" stroke="black" stroke-width="0.1"/>
<path d="M135,25 l10.05,0 m0,10.05 m-10.05,0" fill="none" stroke="black" stroke-width="0.1"/>
<path d="M135,35 m10.05,0 m0,10.05 m-10.05,0" fill="none" stroke="black" stroke-width="0.1"/>
<path d="M135,45 l10.05,0 l0,10.05 m-10.05,0" fill="none" stroke="black" stroke-width="0.1"/>
<path d="M135,55 m10.05,0 l0,10.05 m-10.05,0" fill="none" stroke="black" stroke-width="0.1"/>
<path d="M135,65 m10.05,0 l0,10.05 m-10.05,0" fill="none" stroke="black" stroke-width="0.1"/>
<path d="M135,75 m10.05,0 l0,10.05 m-10.05,0" fill="none" stroke="black" stroke-width="0.1"/>
<path d="M135,85 l10.05,0 m0,10.05 m-10.05,0" fill="none" stroke="black" stroke-width="0.1"/>
<path d="M135,95 m10.05,0 m0,10.05 m-10.05,0" fill="none" stroke="black" stroke-width="0.1"/>
<path d="M135,105 m10.05,0 l0,10.05 m-10.05,0" fill="none" stroke="black" stroke-width="0.1"/>
<path d="M135,115 m10.05,0 l0,10.05 m-10.05,0" fill="none" stroke="black" stroke-width="0.1"/>
<path d="M135,125 l10.05,0 m0,10.05 m-10.05,0" fill="none" stroke="black" stroke-width="0.1"/>
<path d="M135,135 l10.05,0 m0,10.05 m-10.05,0" fill="none" stroke="black" stroke-width="0.1"/>
<path d="M135,145 m10.05,0 l0,10.05 m-10.05,0" fill="none" stroke="black" stroke-width="0.1"/>
<path d="M135,155 m10.05,0 m0,10.05 l-10.05,0" fill="none" stroke="black" stroke-width="0.1"/>
<path d="M145,5 l10.05,0 m0,10.05 m-10.05,0" fill="none" stroke="black" stroke-width="0.1"/>
<path d="M145,15 l10.05,0 m0,10.05 m-10.05,0" fill="none" stroke="black" stroke-width="0.1"/>
<path d="M145,25 l10.05,0 m0,10.05 m-10.05,0" fill="none" stroke="black" stroke-width="0.1"/>
<path d="M145,35 l10.05,0 m0,10.05 m-10.05,0" fill="none" stroke="black" stroke-width="0.1"/>
<path d="M145,45 m10.05,0 l0,10.05 m-10.05,0" fill="none" stroke="black" stroke-width="0.1"/>
<path d="M145,55 l10.05,0 m0,10.05 m-10.05,0" fill="none" stroke="black" stroke-width="0.1"/>
<path d="M145,65 m10.05,0 m0,10.05 m-10.05,0" fill="none" stroke="black" stroke-width="0.1"/>
<path d="M145,75 l10.05,0 m0,10.05 m-10.05,0" fill="none" stroke="black" stroke-width="0.1"/>
<path d="M145,85 m10.05,0 l0,10.05 m-10.05,0" fill="none" stroke="black" stroke-width="0.1"/>
<path d="M145,95 l10.05,0 l0,10.05 m-10.05,0" fill="none" stroke="black" stroke-width="0.1"/>
<path d="M145,105 m10.05,0 l0,10.05 m-10.05,0" fill="none" stroke="black" stroke-width="0.1"/>
<path d="M145,115 m10.05,0 m0,10.05 m-10.05,0" fill="none" stroke="black" stroke-width="0.1"/>
<path d="M145,125 l10.05,0 m0,10.05 m-10.05,0" fill="none" stroke="black" stroke-width="0.1"/>
<path d="M145,135 l10.05,0 l0,10.05 m-10.05,0" fill="none" stroke="black" stroke-width="0.1"/>
<path d="M145,145 m10.05,0 l0,10.05 m-10.05,0" fill="none" stroke="black" stroke-width="0.1"/>
<path d="M145,155 l10.05,0 m0,10.05 l-10.05,0" fill="none" stroke="black" stroke-width="0.1"/>
<path d="M155,5 l10.05,0 l0,10.05 m-10.05,0" fill="none" stroke="black" stroke-width="0.1"/>
<path d="M155,15 m10.05,0 l0,10.05 m-10.05,0" fill="none" stroke="black" stroke-width="0.1"/>
<path d="M155,25 l10.05,0 l0,10.05 m-10.05,0" fill="none" stroke="black" stroke-width="0.1"/>
<path d="M155,35 l10.05,0 l0,10.05 m-10.05,0" fill="none" stroke="black" stroke-width="0.1"/>
<path d="M155,45 m10.05,0 l0,10.05 m-10.05,0" fill="none" stroke="black" stroke-width="0.1"/>
<path d="M155,55 m10.05,0 l0,10.05 m-10.05,0" fill="none" stroke="black" stroke-width="0.1"/>
<path d="M155,65 l10.05,0 l0,10.05 m-10.05,0" fill="none" stroke="black" stroke-width="0.1"/>
<path d="M155,75 m10.05,0 l0,10.05 m-10.05,0" fill="none" stroke="black" stroke-width="0.1"/>
<path d="M155,85 m10.05,0 l0,10.05 m-10.05,0" fill="none" stroke="black" stroke-width="0.1"/>
<path d="M155,95 m10.05,0 l0,10.05 m-10.05,0" fill="none" stroke="black" stroke-width="0.1"/>
<path d="M155,105 m10.05,0 l0,10.05 m-10.05,0" fill="none" stroke="black" stroke-width="0.1"/>
<path d="M155,115 l10.05,0 l0,10.05 m-10.05,0" fill="none" stroke="black" stroke-width="0.1"/>
<path d="M155,125 m10.05,0 l0,10.05 m-10.05,0" fill="none" stroke="black" stroke-width="0.1"/>
<path d="M155,135 m10.05,0 l0,10.05 m-10.05,0" fill="none" stroke="black" stroke-width="0.1"/>
<path d="M155,145 m10.05,0 l0,10.05 m-10.05,0" fill="none" stroke="black" stroke-width="0.1"/>
<path d="M155,155 m10.05,0 l0,10.05 m-10.05,0" fill="none" stroke="black" stroke-width="0.1"/>
</svg>